<svg width="80" height="80" viewBox="0 0 80 80" fill="none" xmlns="http://www.w3.org/2000/svg">
<path d="M0 16C0 7.16344 7.16344 0 16 0H64C72.8366 0 80 7.16344 80 16V64C80 72.8366 72.8366 80 64 80H16C7.16344 80 0 72.8366 0 64V16Z" fill="white" fill-opacity="0.06"/>
<path fill-rule="evenodd" clip-rule="evenodd" d="M41.3595 65.8244C54.4162 62.3387 63.9731 50.4247 63.9731 37.7043L64 26.2846C64 24.1515 62.3039 21.7323 60.258 20.9259L45.263 14.995C41.8979 13.6683 38.102 13.6683 34.7369 14.995L19.742 20.9259C17.6691 21.7323 16 24.1515 16 26.2846V37.7043C16 50.4247 25.5569 62.3387 38.6135 65.8244C39.5019 66.0585 40.4711 66.0585 41.3595 65.8244ZM29 28.0455C28.1716 28.0455 27.5 28.717 27.5 29.5455V48.4546C27.5 49.283 28.1716 49.9546 29 49.9546C29.8284 49.9546 30.5 49.283 30.5 48.4546V40.5H35C35.8284 40.5 36.5 39.8284 36.5 39C36.5 38.1716 35.8284 37.5 35 37.5H30.5V31.0455H38.6C39.4284 31.0455 40.1 30.3739 40.1 29.5455C40.1 28.717 39.4284 28.0455 38.6 28.0455H29ZM47 28.0455C43.5423 28.0455 40.7 30.812 40.7 34.2727V43.7273C40.7 47.188 43.5423 49.9546 47 49.9546C50.4577 49.9546 53.3 47.188 53.3 43.7273C53.3 42.8988 52.6284 42.2273 51.8 42.2273C50.9716 42.2273 50.3 42.8988 50.3 43.7273C50.3 45.4881 48.8442 46.9546 47 46.9546C45.1558 46.9546 43.7 45.4881 43.7 43.7273V34.2727C43.7 32.5119 45.1558 31.0455 47 31.0455C48.8442 31.0455 50.3 32.5119 50.3 34.2727C50.3 35.1012 50.9716 35.7727 51.8 35.7727C52.6284 35.7727 53.3 35.1012 53.3 34.2727C53.3 30.812 50.4577 28.0455 47 28.0455Z" fill="white" fill-opacity="0.3"/>
</svg>
